<svg xmlns="http://www.w3.org/2000/svg" width="86.454" height="130.503" viewBox="0 0 86.454 130.503"><defs><style>.a{fill:none;stroke:#666;stroke-miterlimit:10;stroke-width:3.04px;}.b{fill:#f990bd;}.c{fill:#fbbed3;mix-blend-mode:multiply;isolation:isolate;}.d{fill:#fffacc;opacity:0.4;}.e{fill:#fff;}</style></defs><g transform="translate(-14.841 -269.497)"><g transform="translate(16.381 269.497)"><path class="a" d="M1527.738,1673.39a9.808,9.808,0,1,1-2.735-13.6A9.808,9.808,0,0,1,1527.738,1673.39Z" transform="translate(-1509.761 -1568.574)"/><path class="a" d="M1562.627,1474.356s-49.946,60.076-52.756,84.931" transform="translate(-1509.871 -1459.903)"/><path class="a" d="M1608.228,1517.518s-36.78,63.558-58.323,75.1" transform="translate(-1532.124 -1487.537)"/><g transform="translate(46.03)"><path class="b" d="M1640.022,1442.776a18.12,18.12,0,0,0-25.121,5.053l-5.681,8.542,9.82,6.533,2.842-4.273c2.771-4.165,5.953-3.839,8.859-1.906s4.44,4.743,1.67,8.91l-2.841,4.272,9.819,6.532,5.682-8.541A18.12,18.12,0,0,0,1640.022,1442.776Z" transform="translate(-1609.22 -1439.743)"/><path class="c" d="M1676.235,1444.914a18.24,18.24,0,0,0-3.556-1.832c-2.742,2.573-2.708,7.526-2.811,11.141a31,31,0,0,0,.575,6.315c.3,1.667.955,3.227.2,4.824a8.514,8.514,0,0,1-2.468,3.085l-2.393,3.6,9.819,6.532,5.682-8.542A18.12,18.12,0,0,0,1676.235,1444.914Z" transform="translate(-1645.433 -1441.88)"/><path class="c" d="M1684.553,1446.9c-.388-.256-.781-.491-1.18-.714-2.018,2.71-1.486,7.021.071,9.924,5.9,11.022-4.67,21.029-4.67,21.029l5.145,3.423,5.682-8.542A18.12,18.12,0,0,0,1684.553,1446.9Z" transform="translate(-1653.751 -1443.871)"/><path class="d" d="M1624.511,1454.829c-2.234,1.926-4.045,6.99-3.379,7.425.986.649,1.719,1.32,2.647.732,1.946-1.23,2.706-3.8,4.837-4.92,1.8-.937,3.974-.55,5.789-1.407,1.659-.78,3.17-3.258,1.685-4.894C1633.214,1448.589,1626.754,1452.9,1624.511,1454.829Z" transform="translate(-1616.757 -1446.714)"/></g></g><path class="e" d="M9,0h9a0,0,0,0,1,0,0V56a9,9,0,0,1-9,9H9a9,9,0,0,1-9-9V9A9,9,0,0,1,9,0Z" transform="translate(39 335)"/><path class="e" d="M9,0h9a0,0,0,0,1,0,0V56a9,9,0,0,1-9,9H9a9,9,0,0,1-9-9V9A9,9,0,0,1,9,0Z" transform="translate(39 307)"/><path class="e" d="M9,0H19a0,0,0,0,1,0,0V33a9,9,0,0,1-9,9H9a9,9,0,0,1-9-9V9A9,9,0,0,1,9,0Z" transform="translate(74 307)"/></g></svg>