<svg xmlns="http://www.w3.org/2000/svg" width="85.947" height="86.113" viewBox="0 0 85.947 86.113"><defs><style>.a{fill:#80abdb;}.b{fill:#fff;}.c{fill:#f3b3ce;}.d{fill:#fffbfd;}</style></defs><g transform="translate(-42.164 -121)"><g transform="translate(42.164 121)"><path class="a" style="fill:#80abdb;" d="M239.035,364.729a12.977,12.977,0,0,1-8.185-3.627c-4.278-3.906-8.557-7.813-12.835-11.812-1.86-1.767-3.72-3.441-5.674-5.209-4.465-4.092-9.022-8.278-13.393-12.556a10.971,10.971,0,0,1-3.348-7.906c-.186-4.185,1.488-7.441,4.185-10.324,4-4.279,7.906-8.65,11.905-12.928.93-1.023,1.953-2.139,2.976-3.162,4-4.279,8-8.464,11.812-12.836,2.232-2.511,4.558-4.557,7.906-5.395a12.607,12.607,0,0,1,11.719,3.162c4.185,3.813,8.371,7.813,12.556,11.626,2.883,2.6,5.674,5.3,8.557,7.906,3.627,3.348,7.348,6.6,10.882,10.045a11.726,11.726,0,0,1,3.348,7.255,12.624,12.624,0,0,1-3.906,10.6c-4.744,5.023-9.3,10.138-13.952,15.254-2.325,2.511-4.651,4.93-6.883,7.441-2.7,2.976-5.3,5.953-8.185,8.836C246.2,363.52,243.22,364.729,239.035,364.729Z" transform="translate(-195.585 -278.616)"/><path class="b" style="fill:#fff;" d="M240.105,361.638a9.9,9.9,0,0,1-6.79-2.79c-4.185-3.906-8.371-7.72-12.649-11.533-1.116-1.023-2.232-2.139-3.441-3.162-3.348-2.976-6.511-6.139-9.859-9.115-2.046-1.86-4.092-3.534-5.953-5.488a8.927,8.927,0,0,1-.558-11.719c1.767-2.232,3.813-4.371,5.767-6.511,4.279-4.744,8.65-9.394,12.928-14.045,2.139-2.325,4.371-4.651,6.511-6.976,1.581-1.674,3.069-3.441,4.65-5.116a9.336,9.336,0,0,1,6.976-2.883,9.768,9.768,0,0,1,6.232,2.511c2.325,2.139,4.558,4.279,6.79,6.325l12,10.882c1.953,1.767,3.906,3.627,5.86,5.395,2.418,2.232,4.837,4.464,7.255,6.79a9.385,9.385,0,0,1,0,12.928c-3.906,4.092-7.627,8.371-11.44,12.556-1.767,1.953-3.627,3.906-5.395,5.86-4,4.372-8,8.65-12,12.928A8.792,8.792,0,0,1,240.105,361.638Z" transform="translate(-195.818 -278.873)"/><path class="c" style="fill:#f3b3ce;" d="M227.882,336.855c-.651,2.139-.093,4.278-.558,6.418-.279,1.4-.837,2.232-1.767,2.325-1.023.093-1.581-.465-1.953-2.139a30.787,30.787,0,0,1-.558-8.278c.093-1.209-.372-1.581-1.488-1.581-1.581,0-2.046-.372-1.767-2.046.372-2.511,1.209-4.93,1.674-7.441.093-.558.279-1.116.372-1.581a1.959,1.959,0,0,0-.651-2.046,8.425,8.425,0,0,1-2.418-2.7c-.93-1.86-.279-3.534.93-4.93a20.48,20.48,0,0,1,3.255-3.069,8.586,8.586,0,0,1,7.906-.93c2.046.651,3.162,2.325,4.185,4.092a19.885,19.885,0,0,1,2.325,9.487c0,.744.093,1.209,1.023,1.116a3.307,3.307,0,0,1,.93.186c1.674.279,1.86.465,1.86,2.139,0,1.023.279,1.86.279,2.883,0,.558.372.558.744.558h7.162c.651,0,.744-.279.837-.837a73.037,73.037,0,0,0,.186-7.813c0-.93.279-1.209,1.209-1.209,4.837.186,10.975,4.278,10.324,10.7a9.915,9.915,0,0,1-5.3,8c-.372.186-.93.279-.93.837a1.575,1.575,0,0,0,.837,1.3c.837.372,1.581.93,2.418,1.3a1.894,1.894,0,0,1,1.116,1.86,2.138,2.138,0,0,1-1.209,1.86,1.837,1.837,0,0,1-2.232-.372c-1.116-1.023-1.581-2.6-2.7-3.627-1.023-1.023-1.86-2.325-3.627-2.325a2.014,2.014,0,0,0-1.767.93,46.312,46.312,0,0,1-4.371,5.209,2.083,2.083,0,0,1-2.232.744,2.256,2.256,0,0,1-1.581-1.953,1.963,1.963,0,0,1,1.209-1.953l3.069-1.953c.837-.558.837-.93-.093-1.488a10.733,10.733,0,0,1-2.7-1.86c-.186-.186-.372-.279-.465-.465-1.3-2.511-3.255-4.651-2.7-7.813.279-1.4-.465-2.139-1.767-2.6a1.539,1.539,0,0,0-1.767.279c-.558.465-.372,1.023-.279,1.581a24.462,24.462,0,0,1,.93,5.209c0,.651-.186.837-.837.837-2.418.093-2.511.093-2.511,2.511s-.279,4.744-.279,7.069a2.06,2.06,0,0,1-1.209,2.139c-1.581.558-2.7-.279-2.79-2.139-.093-1.116,0-2.325,0-3.441A6.52,6.52,0,0,0,227.882,336.855Z" transform="translate(-197.174 -280.692)"/><path class="c" style="fill:#f3b3ce;" d="M233.531,301.908a5.59,5.59,0,0,1-5.116,5.209c-2.325,0-5.209-2.883-5.116-5.209a5.086,5.086,0,0,1,5.209-5.209A4.99,4.99,0,0,1,233.531,301.908Z" transform="translate(-197.522 -279.879)"/><path class="d" d="M230.964,322.193a5.312,5.312,0,0,1-2.883-.93.846.846,0,0,1-.372-.744c.093-1.116-.651-1.488-1.674-1.674a8.92,8.92,0,0,1-2.6-.651,1.443,1.443,0,0,1-.93-1.581,2.265,2.265,0,0,1,1.116-2.232,1.208,1.208,0,0,1,1.767.279c1.209,1.86,3.255,2.139,5.023,3.069a7.106,7.106,0,0,1,2.139,1.581,1.6,1.6,0,0,1,.558,1.953c-.279.744-1.023.837-1.674,1.023A.7.7,0,0,0,230.964,322.193Z" transform="translate(-197.466 -281.097)"/></g></g></svg>